inDegrees=yes
name=ik_lifting_orientations
DataType=double
version=3
OpenSimVersion=4.5-2024-01-10-34fd6af
endheader
time	pelvis_tilt	pelvis_list	pelvis_rotation	pelvis_tx	pelvis_ty	pelvis_tz	hip_flexion_r	hip_adduction_r	hip_rotation_r	knee_angle_r	knee_angle_r_beta	ankle_angle_r	subtalar_angle_r	mtp_angle_r	hip_flexion_l	hip_adduction_l	hip_rotation_l	knee_angle_l	knee_angle_l_beta	ankle_angle_l	subtalar_angle_l	mtp_angle_l	lumbar_extension	lumbar_bending	lumbar_rotation	arm_flex_r	arm_add_r	arm_rot_r	elbow_flex_r	pro_sup_r	wrist_flex_r	wrist_dev_r	arm_flex_l	arm_add_l	arm_rot_l	elbow_flex_l	pro_sup_l	wrist_flex_l	wrist_dev_l
0.02	0.002083471470179003	0.001941904465578319	90.02477091288856	0	0.9400000003403366	0	42.80194334942249	-13.41094724322638	0	55.05964757578847	0.9609721351852228	-6.896254809703211	0	0	42.80194334942249	-13.41094724322638	0	55.05964757578847	0.9609721351852228	-6.896254809703211	0	0	0.005897701311692633	0.003614124652383038	-0.009928527157213094	-0.2716913027546959	-0.06912651408978079	0.006391835482749629	0.5429471747250428	-11.31939305687227	0	0	0	-8.053855160274619	0	75.06151697163178	11.31918282868513	0	0
0.03	0.03838028847383733	-0.04171975447306162	89.69075796470854	0	0.9400000003403366	0	42.80239419190842	-13.40853895992232	0	55.06046098611051	0.9609863318735122	-6.894522720273827	0	0	42.80239419190842	-13.40853895992232	0	55.06046098611051	0.9609863318735122	-6.894522720273827	0	0	0.04642434644100334	0.03934775512687974	0.259827853961796	-0.2578326077263748	-0.0734414286719314	0.1025188192098695	0.4570100147386806	-11.31774372729413	0	0	0	-8.05459581645624	0	75.0615044003443	11.31753349909989	0	0
0.04	0.08624495518712057	-0.08760978624152903	89.49583207450877	0	0.9400000003403366	0	42.80265909852175	-13.40715437928979	0	55.06094664353889	0.9609948081946742	-6.893531096477838	0	0	42.80265909852175	-13.40715437928979	0	55.06094664353889	0.9609948081946742	-6.893531096477838	0	0	0.08950329822005815	0.0819997980549608	0.3790005455220175	-0.2450686294900695	-0.06305363858700871	0.2139669538121542	0.5090109469309182	-11.31676892019641	0	0	0	-8.055036093023595	0	75.06149701346706	11.31655869199799	0	0
0.05	0.07922628564507497	-0.08278295304967118	89.8149529758746	0	0.9400000003403366	0	42.80318907285208	-13.40438251089559	0	55.06191788522639	0.9610117595599538	-6.891545570310719	0	0	42.80318907285208	-13.40438251089559	0	55.06191788522639	0.9610117595599538	-6.891545570310719	0	0	0.08833949254792481	0.08381709954533099	-0.04816194103263901	-0.2412404164713526	-0.07067439526494725	0.3182809485182582	0.4965528480325281	-11.31481896445778	0	0	0	-8.055916707891299	0	75.06148223522864	11.31460873625094	0	0
0.06	0.093957479872533	-0.09146235869511525	89.98454382860794	0	0.9400000003403366	0	42.84401705960041	-13.21306802639713	0	55.13505940446757	0.962288319890623	-6.760745673358369	0	0	42.84401705960041	-13.21306802639713	0	55.13505940446757	0.962288319890623	-6.760745673358369	0	0	0.09049999016394021	0.09628184912372995	-0.3200678226067457	-0.2886205929018347	-0.08391922941365076	0.3852170591256628	0.5382278178257942	-11.16378590473152	0	0	0	-8.124225274291508	0	75.06034363646421	11.16357567587592	0	0
0.07000000000000001	0.1131272708338547	-0.1145517969552207	90.01974067151129	0	0.9400000003403366	0	42.89806131681667	-12.96543669027198	0	55.23205439401762	0.9639812018162088	-6.592941118668076	0	0	42.89806131681667	-12.96543669027198	0	55.23205439401762	0.9639812018162088	-6.592941118668076	0	0	0.1167631722578046	0.1192597131100034	-0.3550667319026689	-0.2964254624600397	-0.09510607617426098	0.3554682585559517	0.5430298429828214	-10.96334532647684	0	0	0	-8.215055333365921	0	75.05883643790635	10.96313509676071	0	0
0.08	0.1162713457335211	-0.1353764881578322	90.07799504301363	0	0.9400000003403366	0	42.94288419559901	-12.76724285064645	0	55.31277440742697	0.9653900318224561	-6.460367807509268	0	0	42.94288419559901	-12.76724285064645	0	55.31277440742697	0.9653900318224561	-6.460367807509268	0	0	0.1711050361047834	0.1185850766675694	-0.3621636550575201	-0.5880249576794269	-0.1880886107555672	0.2797990305696639	1.058161190637442	-10.7963686298676	0	0	0	-8.290973769169975	0	75.05758636940564	10.7961583994352	0	0
0.09	0.06754070132159608	-0.07632926524708637	90.5601717930347	0	0.9400000003403366	0	42.94341253386325	-12.76478505525935	0	55.31373485156108	0.9654067947348778	-6.458685615266853	0	0	42.94341253386325	-12.76478505525935	0	55.31373485156108	0.9654067947348778	-6.458685615266853	0	0	0.05345109112303912	0.03112498020157372	-0.7753093890642221	-0.2808091267286143	-0.0896594549390945	0.2413811842660665	0.5640923788320183	-10.79440527324524	0	0	0	-8.291865814841069	0	75.05757163518302	10.79419504280443	0	0
0.1	0.05381802910809669	-0.05799393591347079	90.80292425399013	0	0.9400000003403366	0	42.94366556673369	-12.7636314987864	0	55.31420183714252	0.9654149451708333	-6.45789919212515	0	0	42.94366556673369	-12.7636314987864	0	55.31420183714252	0.9654149451708333	-6.45789919212515	0	0	0.02186317197753676	0.01716987636902314	-0.9401404307642858	-0.2709885742993824	-0.08437366011154268	0.1563108121827335	0.5663477364571144	-10.7934597438568	0	0	0	-8.292297738127127	0	75.05756457846219	10.79324951341193	0	0
0.11	0.07628939239639705	-0.07343606853093294	90.36733787463024	0	0.9400000003403366	0	42.94409999726481	-12.76163707585367	0	55.31499942991021	0.9654288657907195	-6.45653766665001	0	0	42.94409999726481	-12.76163707585367	0	55.31499942991021	0.9654288657907195	-6.45653766665001	0	0	0.03279440663520569	0.0312696949433365	-0.5367478038146212	-0.2533501191872831	-0.03485140528169187	0.2147844858098369	0.5483776651263875	-10.79183944725722	0	0	0	-8.293036549065066	0	75.05755246292462	10.79162921680541	0	0
0.12	0.08767108342299343	-0.08160434622752656	90.29736668909969	0	0.9400000003403366	0	43.02949456892124	-12.40769255423955	0	55.4696433460528	0.9681279112955857	-6.225448061404247	0	0	43.02949456892124	-12.40769255423955	0	55.4696433460528	0.9681279112955857	-6.225448061404247	0	0	0.03927227048783295	0.04310344549084318	-0.5178232892687339	-0.2551356868194985	2.249366993509603e-05	0.2550866351915266	0.5554078966499998	-10.47127190447203	0	0	0	-8.439629856968621	0	75.05517075441006	10.47106167264732	0	0
